<svg width="729" height="692" viewBox="0 0 729 692" fill="none" xmlns="http://www.w3.org/2000/svg">
<g clip-path="url(#clip0_166_696)">
<path d="M476.582 436.495H243.401C242.765 436.494 242.154 436.178 241.704 435.617C241.254 435.056 241.001 434.294 241 433.5V149.995C241.001 149.201 241.254 148.44 241.704 147.878C242.154 147.317 242.765 147.001 243.401 147H476.582C477.219 147.001 477.829 147.317 478.279 147.878C478.73 148.44 478.983 149.201 478.984 149.995V433.5C478.983 434.294 478.73 435.056 478.279 435.617C477.829 436.178 477.219 436.494 476.582 436.495Z" fill="black"/>
<path d="M451.236 172.955H268.747C268.11 172.956 267.5 173.272 267.05 173.834C266.6 174.395 266.347 175.156 266.346 175.95V352.309C266.347 353.103 266.6 353.864 267.05 354.425C267.5 354.987 268.11 355.303 268.747 355.304H451.236C451.873 355.303 452.483 354.987 452.933 354.425C453.383 353.864 453.637 353.103 453.638 352.309V175.95C453.637 175.156 453.383 174.395 452.933 173.834C452.483 173.272 451.873 172.956 451.236 172.955Z" fill="white"/>
<path d="M440.832 389.91H279.152C278.799 389.909 278.46 389.734 278.21 389.422C277.959 389.11 277.819 388.687 277.818 388.246V378.929C277.819 378.488 277.959 378.065 278.21 377.753C278.46 377.441 278.799 377.266 279.152 377.265H440.832C441.185 377.266 441.524 377.441 441.775 377.753C442.025 378.065 442.165 378.488 442.166 378.929V388.246C442.165 388.687 442.025 389.11 441.775 389.422C441.524 389.734 441.185 389.909 440.832 389.91Z" fill="#B8CF43"/>
<path d="M384.804 412.537H279.152C278.799 412.536 278.46 412.361 278.21 412.049C277.959 411.737 277.819 411.314 277.818 410.873V401.556C277.819 401.115 277.959 400.692 278.21 400.38C278.46 400.068 278.799 399.893 279.152 399.892H384.804C385.158 399.893 385.497 400.068 385.747 400.38C385.997 400.692 386.138 401.115 386.138 401.556V410.873C386.138 411.314 385.997 411.737 385.747 412.049C385.497 412.361 385.158 412.536 384.804 412.537Z" fill="#B8CF43"/>
<path d="M377.948 355.304H341.221L343.51 312.459L356.759 316.272L369.645 310.09L369.987 309.93L370.008 309.917C370.013 309.929 370.016 309.943 370.019 309.956C370.222 310.975 374.266 331.173 377.948 355.304Z" fill="#6C63FF"/>
<path d="M400.082 319.453L396.651 355.303H365.697L369.646 310.09L369.683 309.65L369.987 309.93L370.019 309.956L377.655 316.904L400.082 319.453Z" fill="#2F2E41"/>
<path d="M346.652 355.304H318.931L318.531 327.08L338.931 318.641L343.509 312.458C343.509 312.458 344.955 331.059 346.652 355.304Z" fill="#2F2E41"/>
<path d="M413.427 355.304H390.455L391.928 329.622L400.081 319.453C400.081 319.453 406.532 336.33 413.427 355.304Z" fill="#2F2E41"/>
<path d="M325.468 355.304H313.35C313.403 347.079 313.435 341.395 313.435 339.791C313.374 337.312 313.808 334.853 314.698 332.634C315.587 330.415 316.904 328.507 318.531 327.08L324.651 329.622L325.468 355.304Z" fill="#2F2E41"/>
<path d="M323.578 268.356C323.597 261.386 325.066 254.543 327.841 248.494C330.616 242.445 334.603 237.398 339.411 233.847C349.626 226.326 361.95 226.462 373.224 234.219C381.255 239.747 387.79 253.655 387.79 265.223V298.976H323.578V268.356Z" fill="#2F2E41"/>
<path d="M365.537 294.6C376.777 286.937 380.907 269.361 374.763 255.343C368.619 241.326 354.527 236.174 343.288 243.837C332.049 251.499 327.918 269.075 334.062 283.093C340.206 297.111 354.298 302.262 365.537 294.6Z" fill="#FFB8B8"/>
<path d="M330.227 269.492C330.051 269.239 329.64 268.646 332.5 241.191L332.591 240.743H332.85C347.351 231.845 362.063 231.622 376.581 240.074C377.028 240.339 377.412 240.744 377.696 241.249C377.98 241.754 378.153 242.343 378.2 242.957C379.894 268.752 379.485 269.314 379.31 269.555C379.044 269.918 378.72 270.209 378.359 270.408C377.998 270.607 377.608 270.71 377.213 270.711H370.781L370.646 270.408C369.542 267.848 368.33 265.363 367.016 262.962C366.412 265.352 365.917 267.782 365.534 270.242L365.455 270.711H332.368C331.962 270.711 331.56 270.602 331.191 270.392C330.821 270.182 330.493 269.875 330.227 269.492Z" fill="#2F2E41"/>
<path d="M229.582 521.495H-3.59882C-4.23544 521.494 -4.84578 521.178 -5.29594 520.617C-5.74609 520.056 -5.99929 519.294 -6 518.5V234.995C-5.99929 234.201 -5.74609 233.44 -5.29594 232.878C-4.84578 232.317 -4.23544 232.001 -3.59882 232H229.582C230.219 232.001 230.829 232.317 231.279 232.878C231.73 233.44 231.983 234.201 231.984 234.995V518.5C231.983 519.294 231.73 520.056 231.279 520.617C230.829 521.178 230.219 521.494 229.582 521.495Z" fill="black"/>
<path d="M204.237 257.955H21.7469C21.1104 257.956 20.5002 258.272 20.0501 258.833C19.6 259.394 19.3467 260.155 19.3457 260.949V437.308C19.3467 438.102 19.6 438.863 20.0501 439.425C20.5002 439.986 21.1104 440.302 21.7469 440.303H204.237C204.873 440.302 205.483 439.986 205.933 439.425C206.383 438.863 206.637 438.102 206.638 437.308V260.949C206.637 260.155 206.383 259.394 205.933 258.833C205.483 258.272 204.873 257.956 204.237 257.955Z" fill="white"/>
<path d="M193.832 474.91H32.1523C31.7987 474.909 31.4596 474.734 31.2095 474.422C30.9595 474.11 30.8188 473.687 30.8184 473.246V463.929C30.8188 463.488 30.9595 463.065 31.2095 462.753C31.4596 462.441 31.7987 462.266 32.1523 462.265H193.832C194.185 462.266 194.524 462.441 194.775 462.753C195.025 463.065 195.165 463.488 195.166 463.929V473.246C195.165 473.687 195.025 474.11 194.775 474.422C194.524 474.734 194.185 474.909 193.832 474.91Z" fill="#B8CF43"/>
<path d="M137.804 497.537H32.1523C31.7987 497.537 31.4596 497.361 31.2095 497.049C30.9595 496.737 30.8188 496.315 30.8184 495.873V486.556C30.8188 486.115 30.9595 485.692 31.2095 485.381C31.4596 485.069 31.7987 484.893 32.1523 484.893H137.804C138.158 484.893 138.497 485.069 138.747 485.381C138.997 485.692 139.138 486.115 139.138 486.556V495.873C139.138 496.315 138.997 496.737 138.747 497.049C138.497 497.361 138.158 497.537 137.804 497.537Z" fill="#B8CF43"/>
<path d="M108.484 377.459C121.299 377.459 131.687 364.503 131.687 348.52C131.687 332.538 121.299 319.582 108.484 319.582C95.6695 319.582 85.2812 332.538 85.2812 348.52C85.2812 364.503 95.6695 377.459 108.484 377.459Z" fill="#FFB8B8"/>
<path d="M142.43 440.303H90.9863L92.6671 393.132L93.0675 392.606L98.8408 385H117.212L124.021 393.226L124.571 393.891L139.069 411.221L142.43 440.303Z" fill="#6C63FF"/>
<path d="M99.8334 440.303H60.913C60.8171 429.655 60.7637 423.28 60.7637 423.28L63.0153 421.569C63.0181 421.566 63.0219 421.563 63.026 421.563H63.0314L87.8329 402.782L93.0407 392.234L93.0675 392.607L94.599 414.841C94.599 414.841 97.1282 425.037 99.8334 440.303Z" fill="#2F2E41"/>
<path d="M165.247 440.303H124.022C124.646 409.251 121.285 392.234 123.014 392.234L124.022 393.226L136.172 405.191L152.185 412.519H152.196L163.236 417.57L165.173 418.455V419.593C165.178 422.321 165.189 429.782 165.247 440.303Z" fill="#2F2E41"/>
<path d="M86.5323 357.574C86.5323 357.574 88.5036 353.256 88.0453 338.831C87.587 324.406 105.199 332.565 119.915 331.189C134.631 329.813 131.516 355.271 131.516 355.271C131.516 355.271 132.578 353.758 134.851 341.471C137.124 329.184 131.963 316.939 131.963 316.939C130.443 304.028 122.251 308.166 122.251 308.166C126.196 310.082 125.438 314.177 125.438 314.177C122.099 306.875 113.907 311.013 113.907 311.013C102.982 302.462 91.9086 313.723 91.9086 313.723C78.71 317.459 86.4505 330.55 86.4505 330.55C73.177 338.916 86.5323 357.574 86.5323 357.574Z" fill="#2F2E41"/>
<path d="M66.11 440.303H50.118C50.2427 437.846 50.2463 435.381 50.1287 432.923C49.1735 428.178 62.6095 421.762 63.015 421.569C63.0177 421.565 63.0215 421.563 63.0256 421.562H63.0311L65.5923 423.279L66.11 440.303Z" fill="#2F2E41"/>
<path d="M168.133 440.303H151.335L149.238 414.482L151.591 412.339C151.591 412.339 151.805 412.399 152.184 412.519H152.194C154.078 413.098 159.905 415.014 163.235 417.57C163.975 418.088 164.632 418.774 165.171 419.593C165.502 420.087 165.666 420.721 165.63 421.363C165.545 422.328 166.527 429.436 168.133 440.303Z" fill="#2F2E41"/>
<path d="M723.582 519.495H490.401C489.765 519.494 489.154 519.178 488.704 518.617C488.254 518.056 488.001 517.294 488 516.5V232.995C488.001 232.201 488.254 231.44 488.704 230.878C489.154 230.317 489.765 230.001 490.401 230H723.582C724.219 230.001 724.829 230.317 725.28 230.878C725.73 231.44 725.983 232.201 725.984 232.995V516.5C725.983 517.294 725.73 518.056 725.28 518.617C724.829 519.178 724.219 519.494 723.582 519.495Z" fill="black"/>
<path d="M698.237 255.955H515.747C515.11 255.956 514.5 256.272 514.05 256.834C513.6 257.395 513.347 258.156 513.346 258.95V435.309C513.347 436.103 513.6 436.864 514.05 437.425C514.5 437.987 515.11 438.303 515.747 438.304H698.237C698.873 438.303 699.483 437.987 699.933 437.425C700.383 436.864 700.637 436.103 700.638 435.309V258.95C700.637 258.156 700.383 257.395 699.933 256.834C699.483 256.272 698.873 255.956 698.237 255.955Z" fill="white"/>
<path d="M687.832 472.91H526.152C525.799 472.909 525.46 472.734 525.21 472.422C524.959 472.11 524.819 471.687 524.818 471.246V461.929C524.819 461.488 524.959 461.065 525.21 460.753C525.46 460.441 525.799 460.266 526.152 460.265H687.832C688.185 460.266 688.525 460.441 688.775 460.753C689.025 461.065 689.165 461.488 689.166 461.929V471.246C689.165 471.687 689.025 472.11 688.775 472.422C688.525 472.734 688.185 472.909 687.832 472.91Z" fill="#B8CF43"/>
<path d="M631.804 495.537H526.152C525.799 495.537 525.46 495.361 525.21 495.049C524.959 494.737 524.819 494.315 524.818 493.873V484.556C524.819 484.115 524.959 483.692 525.21 483.38C525.46 483.069 525.799 482.893 526.152 482.893H631.804C632.158 482.893 632.497 483.069 632.747 483.38C632.997 483.692 633.138 484.115 633.138 484.556V493.873C633.138 494.315 632.997 494.737 632.747 495.049C632.497 495.361 632.158 495.537 631.804 495.537Z" fill="#B8CF43"/>
<path d="M651.91 438.304C652.94 433.678 653.74 429.692 654.151 426.87C654.278 426 654.29 425.11 654.188 424.235C652.651 410.599 624.894 399.072 621.335 397.648L620.476 385.775L585.536 381.083L581.112 396.27L568.573 402.133C568.119 402.343 567.687 402.62 567.287 402.959C566.235 403.844 565.426 405.111 564.969 406.588C564.512 408.064 564.429 409.68 564.731 411.218L570.072 438.304L651.91 438.304Z" fill="#6C63FF"/>
<path d="M579.479 438.304H552.367C553.338 430.757 554.208 424.082 554.774 419.836C556.844 404.383 565.873 403.066 567.287 402.959C567.399 402.946 567.468 402.946 567.473 402.946H573.177L579.479 438.304Z" fill="#6C63FF"/>
<path d="M651.91 438.304H658.484C657.903 431.642 656.057 427.157 654.189 424.235C652.942 422.181 651.334 420.512 649.488 419.357L648.992 419.091L643.213 438.304H651.91Z" fill="#6C63FF"/>
<path d="M601.642 373.569C615.536 373.569 626.799 359.521 626.799 342.193C626.799 324.864 615.536 310.816 601.642 310.816C587.748 310.816 576.484 324.864 576.484 342.193C576.484 359.521 587.748 373.569 601.642 373.569Z" fill="#A0616A"/>
<path d="M584.754 326.906C587.359 330.75 591.765 331.834 595.831 332.275C604.088 333.179 616.093 331.714 624.162 329.39C624.742 336.352 623.169 343.858 626.455 349.585C627.996 342.652 628.892 335.521 629.126 328.332C629.225 325.249 629.186 322.06 628.182 319.23C627.178 316.4 624.987 313.997 622.464 313.972C624.339 312.199 626.534 311.029 628.857 310.565L620.869 305.559L622.92 302.932L608.459 301.828L612.648 298.51C606.341 297.43 599.961 297.179 593.612 297.763C590.665 298.034 587.584 298.551 585.196 300.681C582.809 302.811 581.429 307.043 582.912 310.17C581.056 310.55 579.309 311.514 577.835 312.972C576.362 314.43 575.212 316.333 574.493 318.501C573.429 321.867 573.526 325.605 573.854 329.192C574.399 334.929 575.468 340.569 577.04 346.002" fill="#2F2E41"/>
</g>
<defs>
<clipPath id="clip0_166_696">
<rect width="729" height="692" fill="white"/>
</clipPath>
</defs>
</svg>
