<svg width="42" height="44" viewBox="0 0 42 44" fill="none" xmlns="http://www.w3.org/2000/svg">
<path d="M39.9619 27.3711C39.6755 27.3711 39.4248 27.4785 39.21 27.6934C38.9951 27.9082 38.8877 28.1732 38.8877 28.4883V38.2422C38.8877 39.2161 38.5654 40.054 37.9209 40.7559C37.2764 41.4577 36.5101 41.8086 35.6221 41.8086H5.41504C4.52702 41.8086 3.7679 41.4577 3.1377 40.7559C2.50749 40.054 2.19238 39.2161 2.19238 38.2422V10.1406C2.19238 9.16667 2.50749 8.33594 3.1377 7.64844C3.7679 6.96094 4.52702 6.61719 5.41504 6.61719H8.80957V9.15234C8.80957 9.46745 8.91699 9.73242 9.13184 9.94727C9.34668 10.1621 9.59733 10.2695 9.88379 10.2695C10.1989 10.2695 10.4639 10.1621 10.6787 9.94727C10.8936 9.73242 11.001 9.46745 11.001 9.15234V6.61719H30.0791V9.15234C30.0791 9.46745 30.1865 9.73242 30.4014 9.94727C30.6162 10.1621 30.8669 10.2695 31.1533 10.2695C31.4684 10.2695 31.7334 10.1621 31.9482 9.94727C32.1631 9.73242 32.2705 9.46745 32.2705 9.15234V6.61719H35.6221C36.5101 6.61719 37.2692 6.96094 37.8994 7.64844C38.5296 8.33594 38.8447 9.16667 38.8447 10.1406V14.1797C38.8447 14.4661 38.9521 14.7168 39.167 14.9316C39.3818 15.1465 39.6468 15.2539 39.9619 15.2539C40.2484 15.2539 40.499 15.1465 40.7139 14.9316C40.9287 14.7168 41.0361 14.4661 41.0361 14.1797V10.1406C41.0361 8.56511 40.5062 7.21159 39.4463 6.08008C38.3864 4.94857 37.1117 4.38281 35.6221 4.38281H32.2705V1.11719C32.2705 0.802082 32.1631 0.537109 31.9482 0.322266C31.7334 0.107422 31.4684 0 31.1533 0C30.8669 0 30.6162 0.107422 30.4014 0.322266C30.1865 0.537109 30.0791 0.802082 30.0791 1.11719V4.38281H11.001V1.11719C11.001 0.802082 10.8936 0.537109 10.6787 0.322266C10.4639 0.107422 10.1989 0 9.88379 0C9.59733 0 9.34668 0.107422 9.13184 0.322266C8.91699 0.537109 8.80957 0.802082 8.80957 1.11719V4.38281H5.41504C3.92546 4.38281 2.65072 4.94857 1.59082 6.08008C0.530924 7.21159 0.000976562 8.56511 0.000976562 10.1406V38.2422C0.000976562 39.8464 0.530924 41.207 1.59082 42.3242C2.65072 43.4414 3.92546 44 5.41504 44H35.6221C37.1403 44 38.4294 43.4414 39.4893 42.3242C40.5492 41.207 41.0791 39.8464 41.0791 38.2422V28.4883C41.0791 28.1732 40.9717 27.9082 40.7568 27.6934C40.542 27.4785 40.277 27.3711 39.9619 27.3711ZM14.6533 15.9844C14.6533 15.6979 14.6032 15.4258 14.5029 15.168C14.4027 14.9102 14.2523 14.681 14.0518 14.4805C13.8512 14.3086 13.6292 14.1725 13.3857 14.0723C13.1423 13.972 12.8773 13.9219 12.5908 13.9219H7.17676C6.60384 13.9219 6.11686 14.1224 5.71582 14.5234C5.31478 14.9245 5.11426 15.4115 5.11426 15.9844V21.3984C5.11426 21.9714 5.31478 22.4583 5.71582 22.8594C6.11686 23.2604 6.60384 23.4609 7.17676 23.4609H12.6338C13.1781 23.4609 13.6507 23.2604 14.0518 22.8594C14.4528 22.4583 14.6533 21.9714 14.6533 21.3984V15.9844ZM12.4619 21.2695H7.34863V16.1133H12.4619V21.2695ZM24.9229 15.9844C24.9229 15.4115 24.7367 14.9245 24.3643 14.5234C23.9919 14.1224 23.5335 13.9219 22.9893 13.9219H18.0908C17.5465 13.9219 17.0811 14.1224 16.6943 14.5234C16.3076 14.9245 16.1143 15.4115 16.1143 15.9844V21.3984C16.1143 21.9714 16.3076 22.4583 16.6943 22.8594C17.0811 23.2604 17.5465 23.4609 18.0908 23.4609H22.9893C23.5335 23.4609 23.9919 23.2604 24.3643 22.8594C24.7367 22.4583 24.9229 21.9714 24.9229 21.3984V15.9844ZM22.7314 21.2695H18.3486V16.1133H22.7314V21.2695ZM35.9229 15.9844C35.9229 15.4115 35.7223 14.9245 35.3213 14.5234C34.9202 14.1224 34.4476 13.9219 33.9033 13.9219H28.4463C27.8734 13.9219 27.3864 14.1224 26.9854 14.5234C26.5843 14.9245 26.3838 15.4115 26.3838 15.9844V21.3984C26.3838 21.9714 26.5843 22.4583 26.9854 22.8594C27.3864 23.2604 27.8734 23.4609 28.4463 23.4609H33.8604C34.4333 23.4609 34.9202 23.2604 35.3213 22.8594C35.7223 22.4583 35.9229 21.9714 35.9229 21.3984V15.9844ZM33.7314 21.2695H28.6182V16.1133H33.7314V21.2695ZM12.6338 26.3828H7.17676C6.60384 26.3828 6.11686 26.5977 5.71582 27.0273C5.31478 27.457 5.11426 27.9583 5.11426 28.5312V34.5039C5.11426 35.1055 5.31478 35.6139 5.71582 36.0293C6.11686 36.4447 6.60384 36.6523 7.17676 36.6523H12.6338C13.1781 36.6523 13.6507 36.4447 14.0518 36.0293C14.4528 35.6139 14.6533 35.1055 14.6533 34.5039V28.5312C14.6533 27.9583 14.4528 27.457 14.0518 27.0273C13.6507 26.5977 13.1781 26.3828 12.6338 26.3828ZM12.4619 34.4609H7.34863V28.6172H12.4619V34.4609ZM22.9893 26.3828H18.0908C17.5465 26.3828 17.0811 26.5977 16.6943 27.0273C16.3076 27.457 16.1143 27.9583 16.1143 28.5312V34.5039C16.1143 35.1055 16.3076 35.6139 16.6943 36.0293C17.0811 36.4447 17.5465 36.6523 18.0908 36.6523H22.9893C23.5335 36.6523 23.9919 36.4447 24.3643 36.0293C24.7367 35.6139 24.9229 35.1055 24.9229 34.5039V28.5312C24.9229 27.9583 24.7367 27.457 24.3643 27.0273C23.9919 26.5977 23.5335 26.3828 22.9893 26.3828ZM22.7314 34.4609H18.3486V28.6172H22.7314V34.4609ZM33.9033 26.3828H28.4463C27.8734 26.3828 27.3864 26.5977 26.9854 27.0273C26.5843 27.457 26.3838 27.9583 26.3838 28.5312V34.5039C26.3838 35.1055 26.5843 35.6139 26.9854 36.0293C27.3864 36.4447 27.8734 36.6523 28.4463 36.6523H33.8604C34.4333 36.6523 34.9202 36.4447 35.3213 36.0293C35.7223 35.6139 35.9229 35.1055 35.9229 34.5039V28.5312C35.9229 27.9583 35.7223 27.457 35.3213 27.0273C34.9202 26.5977 34.4476 26.3828 33.9033 26.3828ZM33.7314 34.4609H28.6182V28.6172H33.7314V34.4609Z" fill="#029743"/>
</svg>
