<svg width="1440" height="1024" viewBox="0 0 1440 1024" fill="none" xmlns="http://www.w3.org/2000/svg">
<g clip-path="url(#clip0_346_21)">
<path d="M1503.29 -61.3682C1493.93 -73.7709 1479.23 -80.8083 1463.69 -80.6577L635.634 -72.6278C635.634 -72.6278 -373.549 74.6909 646.816 22.2919C1667.18 -30.1072 1589.8 110.16 1589.5 79C1589.27 55.4057 1531.39 -24.1344 1503.29 -61.3682Z" fill="#009646"/>
<path d="M1488.82 -30.9048C1488.56 -57.4592 1551.32 -209.556 1522.52 -220.851C1520.07 -221.809 1517.33 -221.295 1514.74 -220.859L635.634 -72.6278C635.634 -72.6278 -373.549 74.6909 646.816 22.2919C1667.18 -30.1072 1589.8 110.16 1589.5 79C1589.34 62.5603 1489.12 -0.454422 1488.82 -30.9048Z" fill="#009646"/>
<path d="M-43.484 -119.432C-40.4974 -120.304 -37.4392 -120.804 -34.3355 -121.024L1442.5 -225.5C1383.48 -484.782 1647.5 -117.516 834.503 -7.20377C21.5067 103.108 -138.501 -15.5029 -138.501 -55.0141C-138.501 -89.4623 -62.8676 -113.768 -43.484 -119.432Z" fill="#009646"/>
<path d="M-39 -43.6249C-39 -78.6385 -8.43922 -107.015 29.2589 -107.015L1442.5 -225.5C1383.48 -484.782 1647.5 -117.516 834.503 -7.20377C21.5067 103.108 -138.501 -15.5029 -138.501 -55.0141C-138.501 -75.8599 -39 -5.01344 -39 -43.6249Z" fill="#009646"/>
</g>
<defs>
<clipPath id="clip0_346_21">
<rect width="1440" height="1024" fill="white"/>
</clipPath>
</defs>
</svg>
