<svg width="35" height="44" viewBox="0 0 35 44" fill="none" xmlns="http://www.w3.org/2000/svg">
<path d="M34.8184 15.2969C34.8184 15.1536 34.7969 15.0176 34.7539 14.8887C34.7109 14.7598 34.6465 14.6523 34.5605 14.5664L21.7559 0.34375C21.6413 0.229168 21.5052 0.14323 21.3477 0.0859375C21.1901 0.0286446 21.0254 0 20.8535 0C20.8535 0 20.8464 0 20.832 0C20.8177 0 20.8105 0 20.8105 0H5.81445C4.32487 0 3.05013 0.551434 1.99023 1.6543C0.930339 2.75716 0.400391 4.08203 0.400391 5.62891V38.3711C0.400391 39.918 0.930339 41.2428 1.99023 42.3457C3.05013 43.4486 4.32487 44 5.81445 44H29.4043C29.7194 44 29.9772 43.8997 30.1777 43.6992C30.3783 43.4987 30.4785 43.2409 30.4785 42.9258C30.4785 42.6393 30.3783 42.3887 30.1777 42.1738C29.9772 41.959 29.7194 41.8516 29.4043 41.8516H5.81445C4.89779 41.8516 4.12435 41.5078 3.49414 40.8203C2.86393 40.1328 2.54883 39.3164 2.54883 38.3711V5.62891C2.54883 4.68359 2.86393 3.86719 3.49414 3.17969C4.12435 2.49219 4.89779 2.14844 5.81445 2.14844H19.7363V10.6992C19.7363 12.2747 20.2663 13.6139 21.3262 14.7168C22.3861 15.8197 23.6608 16.3711 25.1504 16.3711H32.6699V37.3398C32.6699 37.6263 32.7773 37.877 32.9922 38.0918C33.207 38.3066 33.4577 38.4141 33.7441 38.4141C34.0592 38.4141 34.3171 38.3066 34.5176 38.0918C34.7181 37.877 34.8184 37.6263 34.8184 37.3398V15.2969ZM22.0566 3.82422L31.3809 14.1797H25.2363C24.377 14.1797 23.6322 13.8431 23.002 13.1699C22.3717 12.4967 22.0566 11.6732 22.0566 10.6992V3.82422ZM7.14648 37.9844H28.416C28.7311 37.9844 28.9889 37.877 29.1895 37.6621C29.39 37.4473 29.4902 37.1966 29.4902 36.9102C29.4902 36.6237 29.39 36.373 29.1895 36.1582C28.9889 35.9434 28.7311 35.8359 28.416 35.8359H27.7285V23.418C27.7285 23.1315 27.6211 22.8809 27.4062 22.666C27.1914 22.4512 26.9408 22.3438 26.6543 22.3438H22.7441C22.4577 22.3438 22.207 22.4512 21.9922 22.666C21.7773 22.8809 21.6699 23.1315 21.6699 23.418V35.8359H20.6387V27.3281C20.6387 27.0417 20.5312 26.791 20.3164 26.5762C20.1016 26.3613 19.8509 26.2539 19.5645 26.2539H15.998C15.7116 26.2539 15.4681 26.3613 15.2676 26.5762C15.0671 26.791 14.9668 27.0417 14.9668 27.3281V35.8359H13.5488V32.6562C13.5488 32.3411 13.4414 32.0833 13.2266 31.8828C13.0117 31.6823 12.7611 31.582 12.4746 31.582H8.9082C8.62175 31.582 8.37109 31.6823 8.15625 31.8828C7.94141 32.0833 7.83398 32.3411 7.83398 32.6562V35.8359H7.14648C6.86003 35.8359 6.60938 35.9434 6.39453 36.1582C6.17969 36.373 6.07227 36.6237 6.07227 36.9102C6.07227 37.1966 6.17969 37.4473 6.39453 37.6621C6.60938 37.877 6.86003 37.9844 7.14648 37.9844ZM23.8184 24.4922H25.5801V35.8359H23.8184V24.4922ZM17.0723 28.4023H18.4902V35.8359H17.0723V28.4023ZM9.98242 33.7305H11.4004V35.8359H9.98242V33.7305ZM18.834 13.2344C18.834 13.1771 18.8197 13.1198 18.791 13.0625C18.7624 13.0052 18.7337 12.9622 18.7051 12.9336C18.39 11.2721 17.6022 9.88281 16.3418 8.76562C15.0814 7.64844 13.6061 7.08984 11.916 7.08984C11.916 7.08984 11.9017 7.08984 11.873 7.08984C11.8444 7.08984 11.8301 7.08984 11.8301 7.08984C11.8014 7.08984 11.7871 7.08984 11.7871 7.08984C11.7871 7.08984 11.7728 7.08984 11.7441 7.08984C11.7155 7.08984 11.6868 7.08984 11.6582 7.08984C11.6296 7.08984 11.6009 7.10417 11.5723 7.13281C9.73893 7.21875 8.1849 7.96354 6.91016 9.36719C5.63542 10.7708 4.99805 12.4323 4.99805 14.3516C4.99805 16.3568 5.67839 18.0755 7.03906 19.5078C8.39974 20.9401 10.0254 21.6562 11.916 21.6562C13.8353 21.6562 15.4681 20.9401 16.8145 19.5078C18.1608 18.0755 18.834 16.3568 18.834 14.3516C18.834 14.237 18.834 14.1296 18.834 14.0293C18.834 13.929 18.834 13.8216 18.834 13.707C18.834 13.6211 18.834 13.5423 18.834 13.4707C18.834 13.3991 18.834 13.3203 18.834 13.2344ZM16.4277 12.5898L12.8184 13.2773V9.32422C13.6491 9.49609 14.3867 9.87565 15.0312 10.4629C15.6758 11.0501 16.1413 11.7591 16.4277 12.5898ZM11.916 19.5078C10.5983 19.5078 9.47396 19.0065 8.54297 18.0039C7.61198 17.0013 7.14648 15.7839 7.14648 14.3516C7.14648 13.1771 7.48307 12.1315 8.15625 11.2148C8.82943 10.2982 9.66732 9.69661 10.6699 9.41016V14.5664C10.6699 14.7096 10.7057 14.8529 10.7773 14.9961C10.849 15.1393 10.9421 15.2682 11.0566 15.3828C11.1712 15.4401 11.2858 15.4902 11.4004 15.5332C11.515 15.5762 11.6296 15.5977 11.7441 15.5977C11.7728 15.5977 11.8086 15.5977 11.8516 15.5977C11.8945 15.5977 11.9303 15.5977 11.959 15.5977L16.6855 14.7383C16.6283 16.056 16.1413 17.1803 15.2246 18.1113C14.3079 19.0423 13.2051 19.5078 11.916 19.5078Z" fill="#00995D"/>
</svg>
